<?xml version="1.0" encoding="UTF-8"?><svg xmlns="http://www.w3.org/2000/svg" xmlns:xlink="http://www.w3.org/1999/xlink" fill-opacity="1" color-rendering="auto" color-interpolation="auto" text-rendering="auto" stroke="black" stroke-linecap="square" width="522" stroke-miterlimit="10" shape-rendering="auto" stroke-opacity="1" fill="black" stroke-dasharray="none" font-weight="normal" stroke-width="1" height="748" font-family="'Dialog'" font-style="normal" stroke-linejoin="miter" font-size="12px" stroke-dashoffset="0" image-rendering="auto">
  <!--Generated by ySVG 2.5-->
  <defs id="genericDefs"/>
  <g>
    <defs id="defs1">
      <clipPath clipPathUnits="userSpaceOnUse" id="clipPath1">
        <path d="M0 0 L522 0 L522 748 L0 748 L0 0 Z"/>
      </clipPath>
      <clipPath clipPathUnits="userSpaceOnUse" id="clipPath2">
        <path d="M-9.762 -10 L732.762 -10 L732.762 1054 L-9.762 1054 L-9.762 -10 Z"/>
      </clipPath>
      <clipPath clipPathUnits="userSpaceOnUse" id="clipPath3">
        <path d="M-9.762 -10.4845 L732.762 -10.4845 L732.762 1053.5155 L-9.762 1053.5155 L-9.762 -10.4845 Z"/>
      </clipPath>
      <clipPath clipPathUnits="userSpaceOnUse" id="clipPath4">
        <path d="M-0 0 L-0 24 L24 24 L24 0 Z"/>
      </clipPath>
      <clipPath clipPathUnits="userSpaceOnUse" id="clipPath5">
        <path d="M-9.762 -10.0716 L732.762 -10.0716 L732.762 1053.9283 L-9.762 1053.9283 L-9.762 -10.0716 Z"/>
      </clipPath>
      <clipPath clipPathUnits="userSpaceOnUse" id="clipPath6">
        <path d="M-0 -0 L-0 24 L24 24 L24 -0 Z"/>
      </clipPath>
      <clipPath clipPathUnits="userSpaceOnUse" id="clipPath7">
        <path d="M-9.762 -10.3841 L732.762 -10.3841 L732.762 1053.6158 L-9.762 1053.6158 L-9.762 -10.3841 Z"/>
      </clipPath>
      <clipPath clipPathUnits="userSpaceOnUse" id="clipPath8">
        <path d="M-9.762 -10.3618 L732.762 -10.3618 L732.762 1053.6382 L-9.762 1053.6382 L-9.762 -10.3618 Z"/>
      </clipPath>
      <clipPath clipPathUnits="userSpaceOnUse" id="clipPath9">
        <path d="M0 -0 L0 24 L24 24 L24 -0 Z"/>
      </clipPath>
      <clipPath clipPathUnits="userSpaceOnUse" id="clipPath10">
        <path d="M-9.762 -10.6743 L732.762 -10.6743 L732.762 1053.3257 L-9.762 1053.3257 L-9.762 -10.6743 Z"/>
      </clipPath>
      <clipPath clipPathUnits="userSpaceOnUse" id="clipPath11">
        <path d="M-9.762 -10.0269 L732.762 -10.0269 L732.762 1053.973 L-9.762 1053.973 L-9.762 -10.0269 Z"/>
      </clipPath>
      <clipPath clipPathUnits="userSpaceOnUse" id="clipPath12">
        <path d="M-9.762 -10.3394 L732.762 -10.3394 L732.762 1053.6605 L-9.762 1053.6605 L-9.762 -10.3394 Z"/>
      </clipPath>
      <clipPath clipPathUnits="userSpaceOnUse" id="clipPath13">
        <path d="M0 0 L0 24 L24 24 L24 0 Z"/>
      </clipPath>
      <clipPath clipPathUnits="userSpaceOnUse" id="clipPath14">
        <path d="M-10.262 -10.3171 L732.262 -10.3171 L732.262 1053.683 L-10.262 1053.683 L-10.262 -10.3171 Z"/>
      </clipPath>
      <clipPath clipPathUnits="userSpaceOnUse" id="clipPath15">
        <path d="M-10.262 -10.6296 L732.262 -10.6296 L732.262 1053.3705 L-10.262 1053.3705 L-10.262 -10.6296 Z"/>
      </clipPath>
      <clipPath clipPathUnits="userSpaceOnUse" id="clipPath16">
        <path d="M-10.262 -10.6072 L732.262 -10.6072 L732.262 1053.3928 L-10.262 1053.3928 L-10.262 -10.6072 Z"/>
      </clipPath>
      <clipPath clipPathUnits="userSpaceOnUse" id="clipPath17">
        <path d="M-10.262 -10.9197 L732.262 -10.9197 L732.262 1053.0803 L-10.262 1053.0803 L-10.262 -10.9197 Z"/>
      </clipPath>
      <clipPath clipPathUnits="userSpaceOnUse" id="clipPath18">
        <path d="M-10.262 -10.5224 L732.262 -10.5224 L732.262 1053.4777 L-10.262 1053.4777 L-10.262 -10.5224 Z"/>
      </clipPath>
      <clipPath clipPathUnits="userSpaceOnUse" id="clipPath19">
        <path d="M-10.262 -10.8349 L732.262 -10.8349 L732.262 1053.1652 L-10.262 1053.1652 L-10.262 -10.8349 Z"/>
      </clipPath>
      <clipPath clipPathUnits="userSpaceOnUse" id="clipPath20">
        <path d="M-9.762 -10.5224 L732.762 -10.5224 L732.762 1053.4777 L-9.762 1053.4777 L-9.762 -10.5224 Z"/>
      </clipPath>
    </defs>
    <g fill="white" stroke="white">
      <path d="M11.9219 737 L11.9219 728.4062 L15.1719 728.4062 Q16.0156 728.4062 16.4688 728.4844 Q17.1094 728.5938 17.5312 728.8906 Q17.9688 729.1875 18.2188 729.7188 Q18.4844 730.25 18.4844 730.8906 Q18.4844 731.9844 17.7812 732.75 Q17.0938 733.5 15.2656 733.5 L13.0625 733.5 L13.0625 737 L11.9219 737 ZM13.0625 732.5 L15.2812 732.5 Q16.3906 732.5 16.8438 732.0938 Q17.3125 731.6719 17.3125 730.9219 Q17.3125 730.3906 17.0312 730.0156 Q16.7656 729.625 16.3281 729.5 Q16.0312 729.4219 15.2656 729.4219 L13.0625 729.4219 L13.0625 732.5 ZM19.4102 733.8906 Q19.4102 732.1562 20.3633 731.3281 Q21.1602 730.6406 22.3164 730.6406 Q23.5977 730.6406 24.4102 731.4844 Q25.2383 732.3125 25.2383 733.7969 Q25.2383 735 24.8789 735.6875 Q24.5195 736.375 23.8164 736.7656 Q23.1289 737.1406 22.3164 737.1406 Q21.0195 737.1406 20.207 736.3125 Q19.4102 735.4688 19.4102 733.8906 ZM20.4883 733.8906 Q20.4883 735.0781 21.0039 735.6719 Q21.5352 736.2656 22.3164 736.2656 Q23.1133 736.2656 23.6289 735.6719 Q24.1445 735.0781 24.1445 733.8594 Q24.1445 732.7031 23.6133 732.1094 Q23.0977 731.5156 22.3164 731.5156 Q21.5352 731.5156 21.0039 732.1094 Q20.4883 732.6875 20.4883 733.8906 ZM27.6152 737 L25.709 730.7812 L26.8027 730.7812 L27.7871 734.375 L28.1621 735.7031 Q28.1934 735.6094 28.4902 734.4219 L29.4746 730.7812 L30.5527 730.7812 L31.4902 734.3906 L31.8027 735.5781 L32.1621 734.375 L33.2246 730.7812 L34.2559 730.7812 L32.3027 737 L31.209 737 L30.2246 733.2656 L29.9746 732.2188 L28.7246 737 L27.6152 737 ZM39.3906 735 L40.4844 735.125 Q40.2344 736.0781 39.5312 736.6094 Q38.8281 737.1406 37.75 737.1406 Q36.3906 737.1406 35.5781 736.2969 Q34.7812 735.4531 34.7812 733.9375 Q34.7812 732.375 35.5938 731.5156 Q36.4062 730.6406 37.6875 730.6406 Q38.9375 730.6406 39.7188 731.4844 Q40.5156 732.3281 40.5156 733.875 Q40.5156 733.9688 40.5156 734.1562 L35.875 734.1562 Q35.9375 735.1875 36.4531 735.7344 Q36.9688 736.2656 37.75 736.2656 Q38.3281 736.2656 38.7344 735.9688 Q39.1562 735.6562 39.3906 735 ZM35.9375 733.2969 L39.4062 733.2969 Q39.3438 732.5 39.0156 732.1094 Q38.5 731.5 37.7031 731.5 Q36.9688 731.5 36.4688 731.9844 Q35.9844 732.4688 35.9375 733.2969 ZM41.7988 737 L41.7988 730.7812 L42.752 730.7812 L42.752 731.7188 Q43.1113 731.0625 43.4082 730.8594 Q43.7207 730.6406 44.0957 730.6406 Q44.627 730.6406 45.1738 730.9688 L44.8145 731.9531 Q44.4238 731.7188 44.0488 731.7188 Q43.6895 731.7188 43.4082 731.9375 Q43.1426 732.1406 43.0332 732.5156 Q42.8457 733.0781 42.8457 733.7344 L42.8457 737 L41.7988 737 ZM50.0605 735 L51.1543 735.125 Q50.9043 736.0781 50.2012 736.6094 Q49.498 737.1406 48.4199 737.1406 Q47.0605 737.1406 46.248 736.2969 Q45.4512 735.4531 45.4512 733.9375 Q45.4512 732.375 46.2637 731.5156 Q47.0762 730.6406 48.3574 730.6406 Q49.6074 730.6406 50.3887 731.4844 Q51.1855 732.3281 51.1855 733.875 Q51.1855 733.9688 51.1855 734.1562 L46.5449 734.1562 Q46.6074 735.1875 47.123 735.7344 Q47.6387 736.2656 48.4199 736.2656 Q48.998 736.2656 49.4043 735.9688 Q49.8262 735.6562 50.0605 735 ZM46.6074 733.2969 L50.0762 733.2969 Q50.0137 732.5 49.6855 732.1094 Q49.1699 731.5 48.373 731.5 Q47.6387 731.5 47.1387 731.9844 Q46.6543 732.4688 46.6074 733.2969 ZM56.5156 737 L56.5156 736.2188 Q55.9219 737.1406 54.7812 737.1406 Q54.0312 737.1406 53.4062 736.7344 Q52.7812 736.3125 52.4375 735.5781 Q52.0938 734.8438 52.0938 733.8906 Q52.0938 732.9688 52.4062 732.2031 Q52.7188 731.4375 53.3438 731.0469 Q53.9688 730.6406 54.7344 730.6406 Q55.2969 730.6406 55.7344 730.875 Q56.1719 731.1094 56.4531 731.4844 L56.4531 728.4062 L57.5 728.4062 L57.5 737 L56.5156 737 ZM53.1875 733.8906 Q53.1875 735.0938 53.6875 735.6875 Q54.1875 736.2656 54.875 736.2656 Q55.5625 736.2656 56.0469 735.7031 Q56.5312 735.1406 56.5312 733.9844 Q56.5312 732.7031 56.0312 732.1094 Q55.5469 731.5156 54.8281 731.5156 Q54.125 731.5156 53.6562 732.0938 Q53.1875 732.6562 53.1875 733.8906 ZM63.4609 737 L62.4766 737 L62.4766 728.4062 L63.5391 728.4062 L63.5391 731.4688 Q64.2109 730.6406 65.2422 730.6406 Q65.8203 730.6406 66.3203 730.875 Q66.8359 731.0938 67.1641 731.5156 Q67.5078 731.9375 67.6953 732.5312 Q67.8828 733.125 67.8828 733.7969 Q67.8828 735.3906 67.0859 736.2656 Q66.2891 737.1406 65.1953 737.1406 Q64.0859 737.1406 63.4609 736.2188 L63.4609 737 ZM63.4453 733.8438 Q63.4453 734.9531 63.7578 735.4531 Q64.2578 736.2656 65.1016 736.2656 Q65.7891 736.2656 66.2891 735.6719 Q66.8047 735.0781 66.8047 733.875 Q66.8047 732.6562 66.3203 732.0781 Q65.8359 731.5 65.1484 731.5 Q64.4609 731.5 63.9453 732.1094 Q63.4453 732.7031 63.4453 733.8438 ZM69.1191 739.3906 L68.9941 738.4062 Q69.3379 738.5 69.6035 738.5 Q69.9473 738.5 70.1504 738.375 Q70.3691 738.2656 70.5098 738.0625 Q70.6035 737.8906 70.8379 737.2656 Q70.8535 737.1875 70.9316 737.0156 L68.5566 730.7812 L69.6973 730.7812 L70.9941 734.375 Q71.2441 735.0625 71.4473 735.8281 Q71.6348 735.0938 71.8848 734.4062 L73.2129 730.7812 L74.2598 730.7812 L71.9004 737.1094 Q71.5098 738.125 71.3066 738.5156 Q71.0254 739.0469 70.6504 739.2812 Q70.291 739.5312 69.791 739.5312 Q69.4941 739.5312 69.1191 739.3906 ZM78.4531 739.3906 L78.3281 738.4062 Q78.6719 738.5 78.9375 738.5 Q79.2812 738.5 79.4844 738.375 Q79.7031 738.2656 79.8438 738.0625 Q79.9375 737.8906 80.1719 737.2656 Q80.1875 737.1875 80.2656 737.0156 L77.8906 730.7812 L79.0312 730.7812 L80.3281 734.375 Q80.5781 735.0625 80.7812 735.8281 Q80.9688 735.0938 81.2188 734.4062 L82.5469 730.7812 L83.5938 730.7812 L81.2344 737.1094 Q80.8438 738.125 80.6406 738.5156 Q80.3594 739.0469 79.9844 739.2812 Q79.625 739.5312 79.125 739.5312 Q78.8281 739.5312 78.4531 739.3906 ZM84.6875 737 L84.6875 728.4062 L90.4844 728.4062 L90.4844 729.4219 L85.8281 729.4219 L85.8281 732.0781 L89.8594 732.0781 L89.8594 733.0938 L85.8281 733.0938 L85.8281 737 L84.6875 737 ZM91.8301 729.625 L91.8301 728.4062 L92.8926 728.4062 L92.8926 729.625 L91.8301 729.625 ZM91.8301 737 L91.8301 730.7812 L92.8926 730.7812 L92.8926 737 L91.8301 737 ZM94.4648 737 L94.4648 728.4062 L95.5273 728.4062 L95.5273 737 L94.4648 737 ZM101.4121 735 L102.5059 735.125 Q102.2559 736.0781 101.5527 736.6094 Q100.8496 737.1406 99.7715 737.1406 Q98.4121 737.1406 97.5996 736.2969 Q96.8027 735.4531 96.8027 733.9375 Q96.8027 732.375 97.6152 731.5156 Q98.4277 730.6406 99.709 730.6406 Q100.959 730.6406 101.7402 731.4844 Q102.5371 732.3281 102.5371 733.875 Q102.5371 733.9688 102.5371 734.1562 L97.8965 734.1562 Q97.959 735.1875 98.4746 735.7344 Q98.9902 736.2656 99.7715 736.2656 Q100.3496 736.2656 100.7559 735.9688 Q101.1777 735.6562 101.4121 735 ZM97.959 733.2969 L101.4277 733.2969 Q101.3652 732.5 101.0371 732.1094 Q100.5215 731.5 99.7246 731.5 Q98.9902 731.5 98.4902 731.9844 Q98.0059 732.4688 97.959 733.2969 ZM103.4141 735.1406 L104.4453 734.9844 Q104.5391 735.6094 104.9297 735.9375 Q105.3359 736.2656 106.0703 736.2656 Q106.7891 736.2656 107.1328 735.9844 Q107.4922 735.6875 107.4922 735.2812 Q107.4922 734.9219 107.1797 734.7188 Q106.9609 734.5781 106.1016 734.3594 Q104.9453 734.0625 104.4922 733.8594 Q104.0547 733.6406 103.8203 733.2656 Q103.5859 732.8906 103.5859 732.4219 Q103.5859 732.0156 103.7734 731.6562 Q103.9609 731.2969 104.2891 731.0625 Q104.5391 730.8906 104.9609 730.7656 Q105.3828 730.6406 105.8828 730.6406 Q106.6016 730.6406 107.1484 730.8594 Q107.7109 731.0625 107.9766 731.4219 Q108.2422 731.7812 108.3359 732.375 L107.3047 732.5156 Q107.2422 732.0469 106.8984 731.7812 Q106.5703 731.5 105.9453 731.5 Q105.2266 731.5 104.9141 731.75 Q104.6016 731.9844 104.6016 732.3125 Q104.6016 732.5156 104.7266 732.6719 Q104.8672 732.8438 105.1328 732.9531 Q105.2891 733.0156 106.0703 733.2188 Q107.1953 733.5312 107.6328 733.7188 Q108.0703 733.9062 108.3203 734.2656 Q108.5703 734.625 108.5703 735.1719 Q108.5703 735.7031 108.2578 736.1719 Q107.9609 736.625 107.3828 736.8906 Q106.8047 737.1406 106.0703 737.1406 Q104.8516 737.1406 104.2109 736.6406 Q103.5859 736.125 103.4141 735.1406 Z" stroke="none" clip-path="url(#clipPath1)"/>
    </g>
    <g fill="silver" stroke="silver">
      <path d="M10.9219 736 L10.9219 727.4062 L14.1719 727.4062 Q15.0156 727.4062 15.4688 727.4844 Q16.1094 727.5938 16.5312 727.8906 Q16.9688 728.1875 17.2188 728.7188 Q17.4844 729.25 17.4844 729.8906 Q17.4844 730.9844 16.7812 731.75 Q16.0938 732.5 14.2656 732.5 L12.0625 732.5 L12.0625 736 L10.9219 736 ZM12.0625 731.5 L14.2812 731.5 Q15.3906 731.5 15.8438 731.0938 Q16.3125 730.6719 16.3125 729.9219 Q16.3125 729.3906 16.0312 729.0156 Q15.7656 728.625 15.3281 728.5 Q15.0312 728.4219 14.2656 728.4219 L12.0625 728.4219 L12.0625 731.5 ZM18.4102 732.8906 Q18.4102 731.1562 19.3633 730.3281 Q20.1602 729.6406 21.3164 729.6406 Q22.5977 729.6406 23.4102 730.4844 Q24.2383 731.3125 24.2383 732.7969 Q24.2383 734 23.8789 734.6875 Q23.5195 735.375 22.8164 735.7656 Q22.1289 736.1406 21.3164 736.1406 Q20.0195 736.1406 19.207 735.3125 Q18.4102 734.4688 18.4102 732.8906 ZM19.4883 732.8906 Q19.4883 734.0781 20.0039 734.6719 Q20.5352 735.2656 21.3164 735.2656 Q22.1133 735.2656 22.6289 734.6719 Q23.1445 734.0781 23.1445 732.8594 Q23.1445 731.7031 22.6133 731.1094 Q22.0977 730.5156 21.3164 730.5156 Q20.5352 730.5156 20.0039 731.1094 Q19.4883 731.6875 19.4883 732.8906 ZM26.6152 736 L24.709 729.7812 L25.8027 729.7812 L26.7871 733.375 L27.1621 734.7031 Q27.1934 734.6094 27.4902 733.4219 L28.4746 729.7812 L29.5527 729.7812 L30.4902 733.3906 L30.8027 734.5781 L31.1621 733.375 L32.2246 729.7812 L33.2559 729.7812 L31.3027 736 L30.209 736 L29.2246 732.2656 L28.9746 731.2188 L27.7246 736 L26.6152 736 ZM38.3906 734 L39.4844 734.125 Q39.2344 735.0781 38.5312 735.6094 Q37.8281 736.1406 36.75 736.1406 Q35.3906 736.1406 34.5781 735.2969 Q33.7812 734.4531 33.7812 732.9375 Q33.7812 731.375 34.5938 730.5156 Q35.4062 729.6406 36.6875 729.6406 Q37.9375 729.6406 38.7188 730.4844 Q39.5156 731.3281 39.5156 732.875 Q39.5156 732.9688 39.5156 733.1562 L34.875 733.1562 Q34.9375 734.1875 35.4531 734.7344 Q35.9688 735.2656 36.75 735.2656 Q37.3281 735.2656 37.7344 734.9688 Q38.1562 734.6562 38.3906 734 ZM34.9375 732.2969 L38.4062 732.2969 Q38.3438 731.5 38.0156 731.1094 Q37.5 730.5 36.7031 730.5 Q35.9688 730.5 35.4688 730.9844 Q34.9844 731.4688 34.9375 732.2969 ZM40.7988 736 L40.7988 729.7812 L41.752 729.7812 L41.752 730.7188 Q42.1113 730.0625 42.4082 729.8594 Q42.7207 729.6406 43.0957 729.6406 Q43.627 729.6406 44.1738 729.9688 L43.8145 730.9531 Q43.4238 730.7188 43.0488 730.7188 Q42.6895 730.7188 42.4082 730.9375 Q42.1426 731.1406 42.0332 731.5156 Q41.8457 732.0781 41.8457 732.7344 L41.8457 736 L40.7988 736 ZM49.0605 734 L50.1543 734.125 Q49.9043 735.0781 49.2012 735.6094 Q48.498 736.1406 47.4199 736.1406 Q46.0605 736.1406 45.248 735.2969 Q44.4512 734.4531 44.4512 732.9375 Q44.4512 731.375 45.2637 730.5156 Q46.0762 729.6406 47.3574 729.6406 Q48.6074 729.6406 49.3887 730.4844 Q50.1855 731.3281 50.1855 732.875 Q50.1855 732.9688 50.1855 733.1562 L45.5449 733.1562 Q45.6074 734.1875 46.123 734.7344 Q46.6387 735.2656 47.4199 735.2656 Q47.998 735.2656 48.4043 734.9688 Q48.8262 734.6562 49.0605 734 ZM45.6074 732.2969 L49.0762 732.2969 Q49.0137 731.5 48.6855 731.1094 Q48.1699 730.5 47.373 730.5 Q46.6387 730.5 46.1387 730.9844 Q45.6543 731.4688 45.6074 732.2969 ZM55.5156 736 L55.5156 735.2188 Q54.9219 736.1406 53.7812 736.1406 Q53.0312 736.1406 52.4062 735.7344 Q51.7812 735.3125 51.4375 734.5781 Q51.0938 733.8438 51.0938 732.8906 Q51.0938 731.9688 51.4062 731.2031 Q51.7188 730.4375 52.3438 730.0469 Q52.9688 729.6406 53.7344 729.6406 Q54.2969 729.6406 54.7344 729.875 Q55.1719 730.1094 55.4531 730.4844 L55.4531 727.4062 L56.5 727.4062 L56.5 736 L55.5156 736 ZM52.1875 732.8906 Q52.1875 734.0938 52.6875 734.6875 Q53.1875 735.2656 53.875 735.2656 Q54.5625 735.2656 55.0469 734.7031 Q55.5312 734.1406 55.5312 732.9844 Q55.5312 731.7031 55.0312 731.1094 Q54.5469 730.5156 53.8281 730.5156 Q53.125 730.5156 52.6562 731.0938 Q52.1875 731.6562 52.1875 732.8906 ZM62.4609 736 L61.4766 736 L61.4766 727.4062 L62.5391 727.4062 L62.5391 730.4688 Q63.2109 729.6406 64.2422 729.6406 Q64.8203 729.6406 65.3203 729.875 Q65.8359 730.0938 66.1641 730.5156 Q66.5078 730.9375 66.6953 731.5312 Q66.8828 732.125 66.8828 732.7969 Q66.8828 734.3906 66.0859 735.2656 Q65.2891 736.1406 64.1953 736.1406 Q63.0859 736.1406 62.4609 735.2188 L62.4609 736 ZM62.4453 732.8438 Q62.4453 733.9531 62.7578 734.4531 Q63.2578 735.2656 64.1016 735.2656 Q64.7891 735.2656 65.2891 734.6719 Q65.8047 734.0781 65.8047 732.875 Q65.8047 731.6562 65.3203 731.0781 Q64.8359 730.5 64.1484 730.5 Q63.4609 730.5 62.9453 731.1094 Q62.4453 731.7031 62.4453 732.8438 ZM68.1191 738.3906 L67.9941 737.4062 Q68.3379 737.5 68.6035 737.5 Q68.9473 737.5 69.1504 737.375 Q69.3691 737.2656 69.5098 737.0625 Q69.6035 736.8906 69.8379 736.2656 Q69.8535 736.1875 69.9316 736.0156 L67.5566 729.7812 L68.6973 729.7812 L69.9941 733.375 Q70.2441 734.0625 70.4473 734.8281 Q70.6348 734.0938 70.8848 733.4062 L72.2129 729.7812 L73.2598 729.7812 L70.9004 736.1094 Q70.5098 737.125 70.3066 737.5156 Q70.0254 738.0469 69.6504 738.2812 Q69.291 738.5312 68.791 738.5312 Q68.4941 738.5312 68.1191 738.3906 ZM77.4531 738.3906 L77.3281 737.4062 Q77.6719 737.5 77.9375 737.5 Q78.2812 737.5 78.4844 737.375 Q78.7031 737.2656 78.8438 737.0625 Q78.9375 736.8906 79.1719 736.2656 Q79.1875 736.1875 79.2656 736.0156 L76.8906 729.7812 L78.0312 729.7812 L79.3281 733.375 Q79.5781 734.0625 79.7812 734.8281 Q79.9688 734.0938 80.2188 733.4062 L81.5469 729.7812 L82.5938 729.7812 L80.2344 736.1094 Q79.8438 737.125 79.6406 737.5156 Q79.3594 738.0469 78.9844 738.2812 Q78.625 738.5312 78.125 738.5312 Q77.8281 738.5312 77.4531 738.3906 ZM83.6875 736 L83.6875 727.4062 L89.4844 727.4062 L89.4844 728.4219 L84.8281 728.4219 L84.8281 731.0781 L88.8594 731.0781 L88.8594 732.0938 L84.8281 732.0938 L84.8281 736 L83.6875 736 ZM90.8301 728.625 L90.8301 727.4062 L91.8926 727.4062 L91.8926 728.625 L90.8301 728.625 ZM90.8301 736 L90.8301 729.7812 L91.8926 729.7812 L91.8926 736 L90.8301 736 ZM93.4648 736 L93.4648 727.4062 L94.5273 727.4062 L94.5273 736 L93.4648 736 ZM100.4121 734 L101.5059 734.125 Q101.2559 735.0781 100.5527 735.6094 Q99.8496 736.1406 98.7715 736.1406 Q97.4121 736.1406 96.5996 735.2969 Q95.8027 734.4531 95.8027 732.9375 Q95.8027 731.375 96.6152 730.5156 Q97.4277 729.6406 98.709 729.6406 Q99.959 729.6406 100.7402 730.4844 Q101.5371 731.3281 101.5371 732.875 Q101.5371 732.9688 101.5371 733.1562 L96.8965 733.1562 Q96.959 734.1875 97.4746 734.7344 Q97.9902 735.2656 98.7715 735.2656 Q99.3496 735.2656 99.7559 734.9688 Q100.1777 734.6562 100.4121 734 ZM96.959 732.2969 L100.4277 732.2969 Q100.3652 731.5 100.0371 731.1094 Q99.5215 730.5 98.7246 730.5 Q97.9902 730.5 97.4902 730.9844 Q97.0059 731.4688 96.959 732.2969 ZM102.4141 734.1406 L103.4453 733.9844 Q103.5391 734.6094 103.9297 734.9375 Q104.3359 735.2656 105.0703 735.2656 Q105.7891 735.2656 106.1328 734.9844 Q106.4922 734.6875 106.4922 734.2812 Q106.4922 733.9219 106.1797 733.7188 Q105.9609 733.5781 105.1016 733.3594 Q103.9453 733.0625 103.4922 732.8594 Q103.0547 732.6406 102.8203 732.2656 Q102.5859 731.8906 102.5859 731.4219 Q102.5859 731.0156 102.7734 730.6562 Q102.9609 730.2969 103.2891 730.0625 Q103.5391 729.8906 103.9609 729.7656 Q104.3828 729.6406 104.8828 729.6406 Q105.6016 729.6406 106.1484 729.8594 Q106.7109 730.0625 106.9766 730.4219 Q107.2422 730.7812 107.3359 731.375 L106.3047 731.5156 Q106.2422 731.0469 105.8984 730.7812 Q105.5703 730.5 104.9453 730.5 Q104.2266 730.5 103.9141 730.75 Q103.6016 730.9844 103.6016 731.3125 Q103.6016 731.5156 103.7266 731.6719 Q103.8672 731.8438 104.1328 731.9531 Q104.2891 732.0156 105.0703 732.2188 Q106.1953 732.5312 106.6328 732.7188 Q107.0703 732.9062 107.3203 733.2656 Q107.5703 733.625 107.5703 734.1719 Q107.5703 734.7031 107.2578 735.1719 Q106.9609 735.625 106.3828 735.8906 Q105.8047 736.1406 105.0703 736.1406 Q103.8516 736.1406 103.2109 735.6406 Q102.5859 735.125 102.4141 734.1406 Z" stroke="none" clip-path="url(#clipPath1)"/>
    </g>
    <g fill="rgb(255,255,204)" transform="matrix(0.703,0,0,0.703,6.8628,7.0301)" stroke="rgb(255,255,204)">
      <rect x="315" width="213" height="356.8349" y="439.9621" clip-path="url(#clipPath2)" stroke="none"/>
    </g>
    <g fill="gray" stroke-miterlimit="1.45" transform="matrix(0.703,0,0,0.703,6.8628,7.0301)" stroke-linecap="butt" stroke="gray">
      <rect fill="none" x="315" width="213" height="356.8349" y="439.9621" clip-path="url(#clipPath2)"/>
      <text x="386" y="457.5869" clip-path="url(#clipPath2)" fill="black" font-family="'Inter'" stroke="none" xml:space="preserve">aplicaciones</text>
      <line stroke-linecap="square" clip-path="url(#clipPath2)" fill="none" x1="316" x2="527" y1="464" y2="464" stroke-miterlimit="10"/>
    </g>
    <g stroke-linecap="round" transform="matrix(0.4687,0,0,0.4687,231.1222,335.6752)" fill="rgb(110,110,110)" image-rendering="optimizeQuality" stroke-linejoin="round" stroke="rgb(110,110,110)" stroke-width="2" stroke-miterlimit="4">
      <path fill="none" d="M12.4 2.7 C13.3 1.8 14.9 1.8 15.8 2.7 L21.3 8.2 C22.2 9.1 22.2 10.7 21.3 11.6 L17.6 15.3 C16.7 16.2 15.1 16.2 14.2 15.3 L8.7 9.8 C7.8 8.9 7.8 7.3 8.7 6.4 Z" clip-path="url(#clipPath4)"/>
    </g>
    <g stroke-linecap="round" transform="matrix(0.4687,0,0,0.4687,231.1222,335.6752)" fill="rgb(110,110,110)" image-rendering="optimizeQuality" stroke-linejoin="round" stroke="rgb(110,110,110)" stroke-width="2" stroke-miterlimit="4">
      <path fill="none" d="M14 7 L17 10" clip-path="url(#clipPath4)"/>
    </g>
    <g stroke-linecap="round" transform="matrix(0.4687,0,0,0.4687,231.1222,335.6752)" fill="rgb(110,110,110)" image-rendering="optimizeQuality" stroke-linejoin="round" stroke="rgb(110,110,110)" stroke-width="2" stroke-miterlimit="4">
      <path fill="none" d="M9.4 10.6 L2 18 L2 21 C2 21.6 2.4 22 3 22 L7 22 L7 19 L10 19 L10 16 L12 16 L13.4 14.6" clip-path="url(#clipPath4)"/>
    </g>
    <g stroke-miterlimit="1.45" font-size="11px" font-weight="bold" font-family="'Inter'" transform="matrix(0.703,0,0,0.703,6.8628,7.0301)" stroke-linecap="butt">
      <text x="341" xml:space="preserve" y="481.1407" clip-path="url(#clipPath2)" stroke="none">id</text>
    </g>
    <g stroke-miterlimit="1.45" font-size="11px" font-family="'Inter'" transform="matrix(0.703,0,0,0.703,6.8628,7.0301)" stroke-linecap="butt">
      <text x="449" xml:space="preserve" y="481.1407" clip-path="url(#clipPath2)" stroke="none">INT</text>
      <text x="341" xml:space="preserve" y="500.4532" clip-path="url(#clipPath2)" font-weight="bold" stroke="none">nombres</text>
      <text x="449" xml:space="preserve" y="500.4532" clip-path="url(#clipPath2)" stroke="none">VARCHAR</text>
      <text x="341" xml:space="preserve" y="519.7657" clip-path="url(#clipPath2)" font-weight="bold" stroke="none">apellidos</text>
      <text x="449" xml:space="preserve" y="519.7657" clip-path="url(#clipPath2)" stroke="none">VARCHAR</text>
      <text x="341" xml:space="preserve" y="539.0782" clip-path="url(#clipPath2)" font-weight="bold" stroke="none">edad</text>
      <text x="449" xml:space="preserve" y="539.0782" clip-path="url(#clipPath2)" stroke="none">INT</text>
      <text x="341" xml:space="preserve" y="558.3907" clip-path="url(#clipPath2)" font-weight="bold" stroke="none">profesion</text>
      <text x="449" xml:space="preserve" y="558.3907" clip-path="url(#clipPath2)" stroke="none">VARCHAR</text>
      <text x="341" xml:space="preserve" y="577.7032" clip-path="url(#clipPath2)" font-weight="bold" stroke="none">cedula</text>
      <text x="449" xml:space="preserve" y="577.7032" clip-path="url(#clipPath2)" stroke="none">VARCHAR</text>
      <text x="341" xml:space="preserve" y="597.0157" clip-path="url(#clipPath2)" font-weight="bold" stroke="none">direccion</text>
      <text x="449" xml:space="preserve" y="597.0157" clip-path="url(#clipPath2)" stroke="none">VARCHAR</text>
      <text x="341" xml:space="preserve" y="616.3282" clip-path="url(#clipPath2)" font-weight="bold" stroke="none">celular</text>
      <text x="449" xml:space="preserve" y="616.3282" clip-path="url(#clipPath2)" stroke="none">VARCHAR</text>
      <text x="341" xml:space="preserve" y="635.6407" clip-path="url(#clipPath2)" font-weight="bold" stroke="none">correo</text>
      <text x="449" xml:space="preserve" y="635.6407" clip-path="url(#clipPath2)" stroke="none">VARCHAR</text>
      <text x="341" xml:space="preserve" y="654.9532" clip-path="url(#clipPath2)" font-weight="bold" stroke="none">ciudad</text>
      <text x="449" xml:space="preserve" y="654.9532" clip-path="url(#clipPath2)" stroke="none">VARCHAR</text>
      <text x="341" xml:space="preserve" y="674.2657" clip-path="url(#clipPath2)" font-weight="bold" stroke="none">perfil</text>
      <text x="449" xml:space="preserve" y="674.2657" clip-path="url(#clipPath2)" stroke="none">TEXT</text>
      <text x="341" xml:space="preserve" y="693.5782" clip-path="url(#clipPath2)" font-weight="bold" stroke="none">tarjeta_profesional</text>
      <text x="449" xml:space="preserve" y="693.5782" clip-path="url(#clipPath2)" stroke="none">VARCHAR</text>
      <text x="341" xml:space="preserve" y="712.8907" clip-path="url(#clipPath2)" font-weight="bold" stroke="none">foto</text>
      <text x="449" xml:space="preserve" y="712.8907" clip-path="url(#clipPath2)" stroke="none">VARCHAR</text>
      <text x="341" xml:space="preserve" y="732.2032" clip-path="url(#clipPath2)" font-weight="bold" stroke="none">trabaja_icbf</text>
      <text x="449" xml:space="preserve" y="732.2032" clip-path="url(#clipPath2)" stroke="none">BIT</text>
      <text x="341" xml:space="preserve" y="751.5157" clip-path="url(#clipPath2)" font-weight="bold" stroke="none">tiempo_grado</text>
      <text x="449" xml:space="preserve" y="751.5157" clip-path="url(#clipPath2)" stroke="none">VARCHAR</text>
      <text x="341" xml:space="preserve" y="770.8282" clip-path="url(#clipPath2)" font-weight="bold" stroke="none">firma_digital</text>
      <text x="449" xml:space="preserve" y="770.8282" clip-path="url(#clipPath2)" stroke="none">VARCHAR</text>
      <text x="341" xml:space="preserve" y="790.1407" clip-path="url(#clipPath2)" font-weight="bold" stroke="none">fecha_aplicacion</text>
      <text x="449" xml:space="preserve" y="790.1407" clip-path="url(#clipPath2)" stroke="none">TIMESTAMP</text>
    </g>
    <g fill="rgb(255,255,204)" transform="matrix(0.703,0,0,0.703,6.8628,7.0301)" stroke="rgb(255,255,204)">
      <rect x="13" width="199" height="125.0849" y="918.5493" clip-path="url(#clipPath2)" stroke="none"/>
    </g>
    <g fill="gray" stroke-miterlimit="1.45" transform="matrix(0.703,0,0,0.703,6.8628,7.0301)" stroke-linecap="butt" stroke="gray">
      <rect fill="none" x="13" width="199" height="125.0849" y="918.5493" clip-path="url(#clipPath2)"/>
      <text x="90" y="936.174" clip-path="url(#clipPath2)" fill="black" font-family="'Inter'" stroke="none" xml:space="preserve">eventos</text>
      <line stroke-linecap="square" clip-path="url(#clipPath2)" fill="none" x1="14" x2="211" y1="943" y2="943" stroke-miterlimit="10"/>
    </g>
    <g stroke-linecap="round" transform="matrix(0.4687,0,0,0.4687,18.8139,672.1256)" fill="rgb(110,110,110)" image-rendering="optimizeQuality" stroke-linejoin="round" stroke="rgb(110,110,110)" stroke-width="2" stroke-miterlimit="4">
      <path fill="none" d="M12.4 2.7 C13.3 1.8 14.9 1.8 15.8 2.7 L21.3 8.2 C22.2 9.1 22.2 10.7 21.3 11.6 L17.6 15.3 C16.7 16.2 15.1 16.2 14.2 15.3 L8.7 9.8 C7.8 8.9 7.8 7.3 8.7 6.4 Z" clip-path="url(#clipPath6)"/>
    </g>
    <g stroke-linecap="round" transform="matrix(0.4687,0,0,0.4687,18.8139,672.1256)" fill="rgb(110,110,110)" image-rendering="optimizeQuality" stroke-linejoin="round" stroke="rgb(110,110,110)" stroke-width="2" stroke-miterlimit="4">
      <path fill="none" d="M14 7 L17 10" clip-path="url(#clipPath6)"/>
    </g>
    <g stroke-linecap="round" transform="matrix(0.4687,0,0,0.4687,18.8139,672.1256)" fill="rgb(110,110,110)" image-rendering="optimizeQuality" stroke-linejoin="round" stroke="rgb(110,110,110)" stroke-width="2" stroke-miterlimit="4">
      <path fill="none" d="M9.4 10.6 L2 18 L2 21 C2 21.6 2.4 22 3 22 L7 22 L7 19 L10 19 L10 16 L12 16 L13.4 14.6" clip-path="url(#clipPath6)"/>
    </g>
    <g stroke-miterlimit="1.45" font-size="11px" font-weight="bold" font-family="'Inter'" transform="matrix(0.703,0,0,0.703,6.8628,7.0301)" stroke-linecap="butt">
      <text x="39" xml:space="preserve" y="959.7279" clip-path="url(#clipPath2)" stroke="none">id</text>
    </g>
    <g stroke-miterlimit="1.45" font-size="11px" font-family="'Inter'" transform="matrix(0.703,0,0,0.703,6.8628,7.0301)" stroke-linecap="butt">
      <text x="131" xml:space="preserve" y="959.7279" clip-path="url(#clipPath2)" stroke="none">INT</text>
      <text x="39" xml:space="preserve" y="979.0404" clip-path="url(#clipPath2)" font-weight="bold" stroke="none">id_aplicacion</text>
      <text x="131" xml:space="preserve" y="979.0404" clip-path="url(#clipPath2)" stroke="none">INT</text>
    </g>
    <g stroke-linecap="round" transform="matrix(0.4687,0,0,0.4687,140.4342,685.7024)" fill="rgb(110,110,110)" image-rendering="optimizeQuality" stroke-linejoin="round" stroke="rgb(110,110,110)" stroke-width="2" stroke-miterlimit="4">
      <path fill="none" d="M7 7 L17 7 L17 17" clip-path="url(#clipPath4)"/>
    </g>
    <g stroke-linecap="round" transform="matrix(0.4687,0,0,0.4687,140.4342,685.7024)" fill="rgb(110,110,110)" image-rendering="optimizeQuality" stroke-linejoin="round" stroke="rgb(110,110,110)" stroke-width="2" stroke-miterlimit="4">
      <path fill="none" d="M7 17 L17 7" clip-path="url(#clipPath4)"/>
    </g>
    <g stroke-miterlimit="1.45" font-size="11px" font-weight="bold" font-family="'Inter'" transform="matrix(0.703,0,0,0.703,6.8628,7.0301)" stroke-linecap="butt">
      <text x="39" xml:space="preserve" y="998.3529" clip-path="url(#clipPath2)" stroke="none">nombre_evento</text>
    </g>
    <g stroke-miterlimit="1.45" font-size="11px" font-family="'Inter'" transform="matrix(0.703,0,0,0.703,6.8628,7.0301)" stroke-linecap="butt">
      <text x="131" xml:space="preserve" y="998.3529" clip-path="url(#clipPath2)" stroke="none">VARCHAR</text>
      <text x="39" xml:space="preserve" y="1017.6654" clip-path="url(#clipPath2)" font-weight="bold" stroke="none">organizacion</text>
      <text x="131" xml:space="preserve" y="1017.6654" clip-path="url(#clipPath2)" stroke="none">VARCHAR</text>
      <text x="39" xml:space="preserve" y="1036.9779" clip-path="url(#clipPath2)" font-weight="bold" stroke="none">fecha_evento</text>
      <text x="131" xml:space="preserve" y="1036.9779" clip-path="url(#clipPath2)" stroke="none">DATE</text>
    </g>
    <g fill="rgb(255,255,204)" transform="matrix(0.703,0,0,0.703,6.8628,7.0301)" stroke="rgb(255,255,204)">
      <rect x="0" width="225" height="163.7099" y="734.8394" clip-path="url(#clipPath2)" stroke="none"/>
    </g>
    <g fill="gray" stroke-miterlimit="1.45" transform="matrix(0.703,0,0,0.703,6.8628,7.0301)" stroke-linecap="butt" stroke="gray">
      <rect fill="none" x="0" width="225" height="163.7099" y="734.8394" clip-path="url(#clipPath2)"/>
      <text x="46.5" y="752.4641" clip-path="url(#clipPath2)" fill="black" font-family="'Inter'" stroke="none" xml:space="preserve">experiencia_academica</text>
      <line stroke-linecap="square" clip-path="url(#clipPath2)" fill="none" x1="1" x2="224" y1="759" y2="759" stroke-miterlimit="10"/>
    </g>
    <g stroke-linecap="round" transform="matrix(0.4687,0,0,0.4687,9.6748,542.9761)" fill="rgb(110,110,110)" image-rendering="optimizeQuality" stroke-linejoin="round" stroke="rgb(110,110,110)" stroke-width="2" stroke-miterlimit="4">
      <path fill="none" d="M12.4 2.7 C13.3 1.8 14.9 1.8 15.8 2.7 L21.3 8.2 C22.2 9.1 22.2 10.7 21.3 11.6 L17.6 15.3 C16.7 16.2 15.1 16.2 14.2 15.3 L8.7 9.8 C7.8 8.9 7.8 7.3 8.7 6.4 Z" clip-path="url(#clipPath9)"/>
    </g>
    <g stroke-linecap="round" transform="matrix(0.4687,0,0,0.4687,9.6748,542.9761)" fill="rgb(110,110,110)" image-rendering="optimizeQuality" stroke-linejoin="round" stroke="rgb(110,110,110)" stroke-width="2" stroke-miterlimit="4">
      <path fill="none" d="M14 7 L17 10" clip-path="url(#clipPath9)"/>
    </g>
    <g stroke-linecap="round" transform="matrix(0.4687,0,0,0.4687,9.6748,542.9761)" fill="rgb(110,110,110)" image-rendering="optimizeQuality" stroke-linejoin="round" stroke="rgb(110,110,110)" stroke-width="2" stroke-miterlimit="4">
      <path fill="none" d="M9.4 10.6 L2 18 L2 21 C2 21.6 2.4 22 3 22 L7 22 L7 19 L10 19 L10 16 L12 16 L13.4 14.6" clip-path="url(#clipPath9)"/>
    </g>
    <g stroke-miterlimit="1.45" font-size="11px" font-weight="bold" font-family="'Inter'" transform="matrix(0.703,0,0,0.703,6.8628,7.0301)" stroke-linecap="butt">
      <text x="26" xml:space="preserve" y="776.0181" clip-path="url(#clipPath2)" stroke="none">id</text>
    </g>
    <g stroke-miterlimit="1.45" font-size="11px" font-family="'Inter'" transform="matrix(0.703,0,0,0.703,6.8628,7.0301)" stroke-linecap="butt">
      <text x="144" xml:space="preserve" y="776.0181" clip-path="url(#clipPath2)" stroke="none">INT</text>
      <text x="26" xml:space="preserve" y="795.3306" clip-path="url(#clipPath2)" font-weight="bold" stroke="none">id_aplicacion</text>
      <text x="144" xml:space="preserve" y="795.3306" clip-path="url(#clipPath2)" stroke="none">INT</text>
    </g>
    <g stroke-linecap="round" transform="matrix(0.4687,0,0,0.4687,149.5733,556.553)" fill="rgb(110,110,110)" image-rendering="optimizeQuality" stroke-linejoin="round" stroke="rgb(110,110,110)" stroke-width="2" stroke-miterlimit="4">
      <path fill="none" d="M7 7 L17 7 L17 17" clip-path="url(#clipPath4)"/>
    </g>
    <g stroke-linecap="round" transform="matrix(0.4687,0,0,0.4687,149.5733,556.553)" fill="rgb(110,110,110)" image-rendering="optimizeQuality" stroke-linejoin="round" stroke="rgb(110,110,110)" stroke-width="2" stroke-miterlimit="4">
      <path fill="none" d="M7 17 L17 7" clip-path="url(#clipPath4)"/>
    </g>
    <g stroke-miterlimit="1.45" font-size="11px" font-weight="bold" font-family="'Inter'" transform="matrix(0.703,0,0,0.703,6.8628,7.0301)" stroke-linecap="butt">
      <text x="26" xml:space="preserve" y="814.6431" clip-path="url(#clipPath2)" stroke="none">nombre_experiencia</text>
    </g>
    <g stroke-miterlimit="1.45" font-size="11px" font-family="'Inter'" transform="matrix(0.703,0,0,0.703,6.8628,7.0301)" stroke-linecap="butt">
      <text x="144" xml:space="preserve" y="814.6431" clip-path="url(#clipPath2)" stroke="none">VARCHAR</text>
      <text x="26" xml:space="preserve" y="833.9556" clip-path="url(#clipPath2)" font-weight="bold" stroke="none">institucion</text>
      <text x="144" xml:space="preserve" y="833.9556" clip-path="url(#clipPath2)" stroke="none">VARCHAR</text>
      <text x="26" xml:space="preserve" y="853.2681" clip-path="url(#clipPath2)" font-weight="bold" stroke="none">fecha_inicio</text>
      <text x="144" xml:space="preserve" y="853.2681" clip-path="url(#clipPath2)" stroke="none">DATE</text>
      <text x="26" xml:space="preserve" y="872.5806" clip-path="url(#clipPath2)" font-weight="bold" stroke="none">fecha_fin</text>
      <text x="144" xml:space="preserve" y="872.5806" clip-path="url(#clipPath2)" stroke="none">DATE</text>
      <text x="26" xml:space="preserve" y="891.8931" clip-path="url(#clipPath2)" font-weight="bold" stroke="none">archivo_certificado</text>
      <text x="144" xml:space="preserve" y="891.8931" clip-path="url(#clipPath2)" stroke="none">VARCHAR</text>
    </g>
    <g fill="rgb(255,255,204)" transform="matrix(0.703,0,0,0.703,6.8628,7.0301)" stroke="rgb(255,255,204)">
      <rect x="16" width="193" height="202.3349" y="512.5046" clip-path="url(#clipPath2)" stroke="none"/>
    </g>
    <g fill="gray" stroke-miterlimit="1.45" transform="matrix(0.703,0,0,0.703,6.8628,7.0301)" stroke-linecap="butt" stroke="gray">
      <rect fill="none" x="16" width="193" height="202.3349" y="512.5046" clip-path="url(#clipPath2)"/>
      <text x="58.5" y="530.1293" clip-path="url(#clipPath2)" fill="black" font-family="'Inter'" stroke="none" xml:space="preserve">experiencia_laboral</text>
      <line stroke-linecap="square" clip-path="url(#clipPath2)" fill="none" x1="17" x2="208" y1="537" y2="537" stroke-miterlimit="10"/>
    </g>
    <g stroke-linecap="round" transform="matrix(0.4687,0,0,0.4687,20.9229,386.6731)" fill="rgb(110,110,110)" image-rendering="optimizeQuality" stroke-linejoin="round" stroke="rgb(110,110,110)" stroke-width="2" stroke-miterlimit="4">
      <path fill="none" d="M12.4 2.7 C13.3 1.8 14.9 1.8 15.8 2.7 L21.3 8.2 C22.2 9.1 22.2 10.7 21.3 11.6 L17.6 15.3 C16.7 16.2 15.1 16.2 14.2 15.3 L8.7 9.8 C7.8 8.9 7.8 7.3 8.7 6.4 Z" clip-path="url(#clipPath6)"/>
    </g>
    <g stroke-linecap="round" transform="matrix(0.4687,0,0,0.4687,20.9229,386.6731)" fill="rgb(110,110,110)" image-rendering="optimizeQuality" stroke-linejoin="round" stroke="rgb(110,110,110)" stroke-width="2" stroke-miterlimit="4">
      <path fill="none" d="M14 7 L17 10" clip-path="url(#clipPath6)"/>
    </g>
    <g stroke-linecap="round" transform="matrix(0.4687,0,0,0.4687,20.9229,386.6731)" fill="rgb(110,110,110)" image-rendering="optimizeQuality" stroke-linejoin="round" stroke="rgb(110,110,110)" stroke-width="2" stroke-miterlimit="4">
      <path fill="none" d="M9.4 10.6 L2 18 L2 21 C2 21.6 2.4 22 3 22 L7 22 L7 19 L10 19 L10 16 L12 16 L13.4 14.6" clip-path="url(#clipPath6)"/>
    </g>
    <g stroke-miterlimit="1.45" font-size="11px" font-weight="bold" font-family="'Inter'" transform="matrix(0.703,0,0,0.703,6.8628,7.0301)" stroke-linecap="butt">
      <text x="42" xml:space="preserve" y="553.6832" clip-path="url(#clipPath2)" stroke="none">id</text>
    </g>
    <g stroke-miterlimit="1.45" font-size="11px" font-family="'Inter'" transform="matrix(0.703,0,0,0.703,6.8628,7.0301)" stroke-linecap="butt">
      <text x="128" xml:space="preserve" y="553.6832" clip-path="url(#clipPath2)" stroke="none">INT</text>
      <text x="42" xml:space="preserve" y="572.9957" clip-path="url(#clipPath2)" font-weight="bold" stroke="none">id_aplicacion</text>
      <text x="128" xml:space="preserve" y="572.9957" clip-path="url(#clipPath2)" stroke="none">INT</text>
    </g>
    <g stroke-linecap="round" transform="matrix(0.4687,0,0,0.4687,138.3252,400.2499)" fill="rgb(110,110,110)" image-rendering="optimizeQuality" stroke-linejoin="round" stroke="rgb(110,110,110)" stroke-width="2" stroke-miterlimit="4">
      <path fill="none" d="M7 7 L17 7 L17 17" clip-path="url(#clipPath13)"/>
    </g>
    <g stroke-linecap="round" transform="matrix(0.4687,0,0,0.4687,138.3252,400.2499)" fill="rgb(110,110,110)" image-rendering="optimizeQuality" stroke-linejoin="round" stroke="rgb(110,110,110)" stroke-width="2" stroke-miterlimit="4">
      <path fill="none" d="M7 17 L17 7" clip-path="url(#clipPath13)"/>
    </g>
    <g stroke-miterlimit="1.45" font-size="11px" font-weight="bold" font-family="'Inter'" transform="matrix(0.703,0,0,0.703,6.8628,7.0301)" stroke-linecap="butt">
      <text x="42" xml:space="preserve" y="592.3082" clip-path="url(#clipPath2)" stroke="none">empresa</text>
    </g>
    <g stroke-miterlimit="1.45" font-size="11px" font-family="'Inter'" transform="matrix(0.703,0,0,0.703,6.8628,7.0301)" stroke-linecap="butt">
      <text x="128" xml:space="preserve" y="592.3082" clip-path="url(#clipPath2)" stroke="none">VARCHAR</text>
      <text x="42" xml:space="preserve" y="611.6207" clip-path="url(#clipPath2)" font-weight="bold" stroke="none">cargo</text>
      <text x="128" xml:space="preserve" y="611.6207" clip-path="url(#clipPath2)" stroke="none">VARCHAR</text>
      <text x="42" xml:space="preserve" y="630.9332" clip-path="url(#clipPath2)" font-weight="bold" stroke="none">jefe_inmediato</text>
      <text x="128" xml:space="preserve" y="630.9332" clip-path="url(#clipPath2)" stroke="none">VARCHAR</text>
      <text x="42" xml:space="preserve" y="650.2457" clip-path="url(#clipPath2)" font-weight="bold" stroke="none">telefono</text>
      <text x="128" xml:space="preserve" y="650.2457" clip-path="url(#clipPath2)" stroke="none">VARCHAR</text>
      <text x="42" xml:space="preserve" y="669.5582" clip-path="url(#clipPath2)" font-weight="bold" stroke="none">ciudad</text>
      <text x="128" xml:space="preserve" y="669.5582" clip-path="url(#clipPath2)" stroke="none">VARCHAR</text>
      <text x="42" xml:space="preserve" y="688.8707" clip-path="url(#clipPath2)" font-weight="bold" stroke="none">fecha_inicio</text>
      <text x="128" xml:space="preserve" y="688.8707" clip-path="url(#clipPath2)" stroke="none">DATE</text>
      <text x="42" xml:space="preserve" y="708.1832" clip-path="url(#clipPath2)" font-weight="bold" stroke="none">fecha_fin</text>
      <text x="128" xml:space="preserve" y="708.1832" clip-path="url(#clipPath2)" stroke="none">DATE</text>
    </g>
    <g fill="rgb(255,255,204)" transform="matrix(0.703,0,0,0.703,6.8628,7.0301)" stroke="rgb(255,255,204)">
      <rect x="4.5" width="216" height="163.7099" y="328.7947" clip-path="url(#clipPath2)" stroke="none"/>
    </g>
    <g fill="gray" stroke-miterlimit="1.45" transform="matrix(0.703,0,0,0.703,6.8628,7.0301)" stroke-linecap="butt" stroke="gray">
      <rect fill="none" x="4.5" width="216" height="163.7099" y="328.7947" clip-path="url(#clipPath2)"/>
      <text x="51" y="346.4194" clip-path="url(#clipPath2)" fill="black" font-family="'Inter'" stroke="none" xml:space="preserve">formacion_academica</text>
      <line stroke-linecap="square" clip-path="url(#clipPath2)" fill="none" x1="5" x2="219" y1="353" y2="353" stroke-miterlimit="10"/>
    </g>
    <g stroke-linecap="round" transform="matrix(0.4687,0,0,0.4687,12.8383,257.5237)" fill="rgb(110,110,110)" image-rendering="optimizeQuality" stroke-linejoin="round" stroke="rgb(110,110,110)" stroke-width="2" stroke-miterlimit="4">
      <path fill="none" d="M12.4 2.7 C13.3 1.8 14.9 1.8 15.8 2.7 L21.3 8.2 C22.2 9.1 22.2 10.7 21.3 11.6 L17.6 15.3 C16.7 16.2 15.1 16.2 14.2 15.3 L8.7 9.8 C7.8 8.9 7.8 7.3 8.7 6.4 Z" clip-path="url(#clipPath6)"/>
    </g>
    <g stroke-linecap="round" transform="matrix(0.4687,0,0,0.4687,12.8383,257.5237)" fill="rgb(110,110,110)" image-rendering="optimizeQuality" stroke-linejoin="round" stroke="rgb(110,110,110)" stroke-width="2" stroke-miterlimit="4">
      <path fill="none" d="M14 7 L17 10" clip-path="url(#clipPath6)"/>
    </g>
    <g stroke-linecap="round" transform="matrix(0.4687,0,0,0.4687,12.8383,257.5237)" fill="rgb(110,110,110)" image-rendering="optimizeQuality" stroke-linejoin="round" stroke="rgb(110,110,110)" stroke-width="2" stroke-miterlimit="4">
      <path fill="none" d="M9.4 10.6 L2 18 L2 21 C2 21.6 2.4 22 3 22 L7 22 L7 19 L10 19 L10 16 L12 16 L13.4 14.6" clip-path="url(#clipPath6)"/>
    </g>
    <g stroke-miterlimit="1.45" font-size="11px" font-weight="bold" font-family="'Inter'" transform="matrix(0.703,0,0,0.703,6.8628,7.0301)" stroke-linecap="butt">
      <text x="30.5" xml:space="preserve" y="369.9733" clip-path="url(#clipPath2)" stroke="none">id</text>
    </g>
    <g stroke-miterlimit="1.45" font-size="11px" font-family="'Inter'" transform="matrix(0.703,0,0,0.703,6.8628,7.0301)" stroke-linecap="butt">
      <text x="139.5" xml:space="preserve" y="369.9733" clip-path="url(#clipPath2)" stroke="none">INT</text>
      <text x="30.5" xml:space="preserve" y="389.2858" clip-path="url(#clipPath2)" font-weight="bold" stroke="none">id_aplicacion</text>
      <text x="139.5" xml:space="preserve" y="389.2858" clip-path="url(#clipPath2)" stroke="none">INT</text>
    </g>
    <g stroke-linecap="round" transform="matrix(0.4687,0,0,0.4687,146.4098,271.1005)" fill="rgb(110,110,110)" image-rendering="optimizeQuality" stroke-linejoin="round" stroke="rgb(110,110,110)" stroke-width="2" stroke-miterlimit="4">
      <path fill="none" d="M7 7 L17 7 L17 17" clip-path="url(#clipPath13)"/>
    </g>
    <g stroke-linecap="round" transform="matrix(0.4687,0,0,0.4687,146.4098,271.1005)" fill="rgb(110,110,110)" image-rendering="optimizeQuality" stroke-linejoin="round" stroke="rgb(110,110,110)" stroke-width="2" stroke-miterlimit="4">
      <path fill="none" d="M7 17 L17 7" clip-path="url(#clipPath13)"/>
    </g>
    <g stroke-miterlimit="1.45" font-size="11px" font-weight="bold" font-family="'Inter'" transform="matrix(0.703,0,0,0.703,6.8628,7.0301)" stroke-linecap="butt">
      <text x="30.5" xml:space="preserve" y="408.5983" clip-path="url(#clipPath2)" stroke="none">titulo</text>
    </g>
    <g stroke-miterlimit="1.45" font-size="11px" font-family="'Inter'" transform="matrix(0.703,0,0,0.703,6.8628,7.0301)" stroke-linecap="butt">
      <text x="139.5" xml:space="preserve" y="408.5983" clip-path="url(#clipPath2)" stroke="none">VARCHAR</text>
      <text x="30.5" xml:space="preserve" y="427.9108" clip-path="url(#clipPath2)" font-weight="bold" stroke="none">institucion</text>
      <text x="139.5" xml:space="preserve" y="427.9108" clip-path="url(#clipPath2)" stroke="none">VARCHAR</text>
      <text x="30.5" xml:space="preserve" y="447.2233" clip-path="url(#clipPath2)" font-weight="bold" stroke="none">fecha_inicio</text>
      <text x="139.5" xml:space="preserve" y="447.2233" clip-path="url(#clipPath2)" stroke="none">DATE</text>
      <text x="30.5" xml:space="preserve" y="466.5358" clip-path="url(#clipPath2)" font-weight="bold" stroke="none">fecha_fin</text>
      <text x="139.5" xml:space="preserve" y="466.5358" clip-path="url(#clipPath2)" stroke="none">DATE</text>
      <text x="30.5" xml:space="preserve" y="485.8483" clip-path="url(#clipPath2)" font-weight="bold" stroke="none">archivo_certificado</text>
      <text x="139.5" xml:space="preserve" y="485.8483" clip-path="url(#clipPath2)" stroke="none">VARCHAR</text>
    </g>
    <g fill="rgb(255,255,204)" transform="matrix(0.703,0,0,0.703,6.8628,7.0301)" stroke="rgb(255,255,204)">
      <rect x="4.5" width="216" height="163.7099" y="145.0849" clip-path="url(#clipPath2)" stroke="none"/>
    </g>
    <g fill="gray" stroke-miterlimit="1.45" transform="matrix(0.703,0,0,0.703,6.8628,7.0301)" stroke-linecap="butt" stroke="gray">
      <rect fill="none" x="4.5" width="216" height="163.7099" y="145.0849" clip-path="url(#clipPath2)"/>
      <text x="51" y="162.7096" clip-path="url(#clipPath2)" fill="black" font-family="'Inter'" stroke="none" xml:space="preserve">formacion_profesional</text>
      <line stroke-linecap="square" clip-path="url(#clipPath2)" fill="none" x1="5" x2="219" y1="169" y2="169" stroke-miterlimit="10"/>
    </g>
    <g stroke-linecap="round" transform="matrix(0.4687,0,0,0.4687,12.8383,128.3742)" fill="rgb(110,110,110)" image-rendering="optimizeQuality" stroke-linejoin="round" stroke="rgb(110,110,110)" stroke-width="2" stroke-miterlimit="4">
      <path fill="none" d="M12.4 2.7 C13.3 1.8 14.9 1.8 15.8 2.7 L21.3 8.2 C22.2 9.1 22.2 10.7 21.3 11.6 L17.6 15.3 C16.7 16.2 15.1 16.2 14.2 15.3 L8.7 9.8 C7.8 8.9 7.8 7.3 8.7 6.4 Z" clip-path="url(#clipPath4)"/>
    </g>
    <g stroke-linecap="round" transform="matrix(0.4687,0,0,0.4687,12.8383,128.3742)" fill="rgb(110,110,110)" image-rendering="optimizeQuality" stroke-linejoin="round" stroke="rgb(110,110,110)" stroke-width="2" stroke-miterlimit="4">
      <path fill="none" d="M14 7 L17 10" clip-path="url(#clipPath4)"/>
    </g>
    <g stroke-linecap="round" transform="matrix(0.4687,0,0,0.4687,12.8383,128.3742)" fill="rgb(110,110,110)" image-rendering="optimizeQuality" stroke-linejoin="round" stroke="rgb(110,110,110)" stroke-width="2" stroke-miterlimit="4">
      <path fill="none" d="M9.4 10.6 L2 18 L2 21 C2 21.6 2.4 22 3 22 L7 22 L7 19 L10 19 L10 16 L12 16 L13.4 14.6" clip-path="url(#clipPath4)"/>
    </g>
    <g stroke-miterlimit="1.45" font-size="11px" font-weight="bold" font-family="'Inter'" transform="matrix(0.703,0,0,0.703,6.8628,7.0301)" stroke-linecap="butt">
      <text x="30.5" xml:space="preserve" y="186.2635" clip-path="url(#clipPath2)" stroke="none">id</text>
    </g>
    <g stroke-miterlimit="1.45" font-size="11px" font-family="'Inter'" transform="matrix(0.703,0,0,0.703,6.8628,7.0301)" stroke-linecap="butt">
      <text x="139.5" xml:space="preserve" y="186.2635" clip-path="url(#clipPath2)" stroke="none">INT</text>
      <text x="30.5" xml:space="preserve" y="205.576" clip-path="url(#clipPath2)" font-weight="bold" stroke="none">id_aplicacion</text>
      <text x="139.5" xml:space="preserve" y="205.576" clip-path="url(#clipPath2)" stroke="none">INT</text>
    </g>
    <g stroke-linecap="round" transform="matrix(0.4687,0,0,0.4687,146.4098,141.9511)" fill="rgb(110,110,110)" image-rendering="optimizeQuality" stroke-linejoin="round" stroke="rgb(110,110,110)" stroke-width="2" stroke-miterlimit="4">
      <path fill="none" d="M7 7 L17 7 L17 17" clip-path="url(#clipPath13)"/>
    </g>
    <g stroke-linecap="round" transform="matrix(0.4687,0,0,0.4687,146.4098,141.9511)" fill="rgb(110,110,110)" image-rendering="optimizeQuality" stroke-linejoin="round" stroke="rgb(110,110,110)" stroke-width="2" stroke-miterlimit="4">
      <path fill="none" d="M7 17 L17 7" clip-path="url(#clipPath13)"/>
    </g>
    <g stroke-miterlimit="1.45" font-size="11px" font-weight="bold" font-family="'Inter'" transform="matrix(0.703,0,0,0.703,6.8628,7.0301)" stroke-linecap="butt">
      <text x="30.5" xml:space="preserve" y="224.8885" clip-path="url(#clipPath2)" stroke="none">titulo</text>
    </g>
    <g stroke-miterlimit="1.45" font-size="11px" font-family="'Inter'" transform="matrix(0.703,0,0,0.703,6.8628,7.0301)" stroke-linecap="butt">
      <text x="139.5" xml:space="preserve" y="224.8885" clip-path="url(#clipPath2)" stroke="none">VARCHAR</text>
      <text x="30.5" xml:space="preserve" y="244.201" clip-path="url(#clipPath2)" font-weight="bold" stroke="none">institucion</text>
      <text x="139.5" xml:space="preserve" y="244.201" clip-path="url(#clipPath2)" stroke="none">VARCHAR</text>
      <text x="30.5" xml:space="preserve" y="263.5135" clip-path="url(#clipPath2)" font-weight="bold" stroke="none">fecha_inicio</text>
      <text x="139.5" xml:space="preserve" y="263.5135" clip-path="url(#clipPath2)" stroke="none">DATE</text>
      <text x="30.5" xml:space="preserve" y="282.826" clip-path="url(#clipPath2)" font-weight="bold" stroke="none">fecha_fin</text>
      <text x="139.5" xml:space="preserve" y="282.826" clip-path="url(#clipPath2)" stroke="none">DATE</text>
      <text x="30.5" xml:space="preserve" y="302.1385" clip-path="url(#clipPath2)" font-weight="bold" stroke="none">archivo_certificado</text>
      <text x="139.5" xml:space="preserve" y="302.1385" clip-path="url(#clipPath2)" stroke="none">VARCHAR</text>
    </g>
    <g fill="rgb(255,255,204)" transform="matrix(0.703,0,0,0.703,6.8628,7.0301)" stroke="rgb(255,255,204)">
      <rect x="21.5" width="182" height="125.0849" y="0" clip-path="url(#clipPath2)" stroke="none"/>
    </g>
    <g fill="gray" stroke-miterlimit="1.45" transform="matrix(0.703,0,0,0.703,6.8628,7.0301)" stroke-linecap="butt" stroke="gray">
      <rect fill="none" x="21.5" width="182" height="125.0849" y="0" clip-path="url(#clipPath2)"/>
      <text x="81" y="17.6247" clip-path="url(#clipPath2)" fill="black" font-family="'Inter'" stroke="none" xml:space="preserve">referencias</text>
      <line stroke-linecap="square" clip-path="url(#clipPath2)" fill="none" x1="22" x2="202" y1="24" y2="24" stroke-miterlimit="10"/>
    </g>
    <g stroke-linecap="round" transform="matrix(0.4687,0,0,0.4687,24.7895,26.3785)" fill="rgb(110,110,110)" image-rendering="optimizeQuality" stroke-linejoin="round" stroke="rgb(110,110,110)" stroke-width="2" stroke-miterlimit="4">
      <path fill="none" d="M12.4 2.7 C13.3 1.8 14.9 1.8 15.8 2.7 L21.3 8.2 C22.2 9.1 22.2 10.7 21.3 11.6 L17.6 15.3 C16.7 16.2 15.1 16.2 14.2 15.3 L8.7 9.8 C7.8 8.9 7.8 7.3 8.7 6.4 Z" clip-path="url(#clipPath13)"/>
    </g>
    <g stroke-linecap="round" transform="matrix(0.4687,0,0,0.4687,24.7895,26.3785)" fill="rgb(110,110,110)" image-rendering="optimizeQuality" stroke-linejoin="round" stroke="rgb(110,110,110)" stroke-width="2" stroke-miterlimit="4">
      <path fill="none" d="M14 7 L17 10" clip-path="url(#clipPath13)"/>
    </g>
    <g stroke-linecap="round" transform="matrix(0.4687,0,0,0.4687,24.7895,26.3785)" fill="rgb(110,110,110)" image-rendering="optimizeQuality" stroke-linejoin="round" stroke="rgb(110,110,110)" stroke-width="2" stroke-miterlimit="4">
      <path fill="none" d="M9.4 10.6 L2 18 L2 21 C2 21.6 2.4 22 3 22 L7 22 L7 19 L10 19 L10 16 L12 16 L13.4 14.6" clip-path="url(#clipPath13)"/>
    </g>
    <g stroke-miterlimit="1.45" font-size="11px" font-weight="bold" font-family="'Inter'" transform="matrix(0.703,0,0,0.703,6.8628,7.0301)" stroke-linecap="butt">
      <text x="47.5" xml:space="preserve" y="41.1786" clip-path="url(#clipPath2)" stroke="none">id</text>
    </g>
    <g stroke-miterlimit="1.45" font-size="11px" font-family="'Inter'" transform="matrix(0.703,0,0,0.703,6.8628,7.0301)" stroke-linecap="butt">
      <text x="122.5" xml:space="preserve" y="41.1786" clip-path="url(#clipPath2)" stroke="none">INT</text>
      <text x="47.5" xml:space="preserve" y="60.4911" clip-path="url(#clipPath2)" font-weight="bold" stroke="none">id_aplicacion</text>
      <text x="122.5" xml:space="preserve" y="60.4911" clip-path="url(#clipPath2)" stroke="none">INT</text>
    </g>
    <g stroke-linecap="round" transform="matrix(0.4687,0,0,0.4687,134.4586,39.9553)" fill="rgb(110,110,110)" image-rendering="optimizeQuality" stroke-linejoin="round" stroke="rgb(110,110,110)" stroke-width="2" stroke-miterlimit="4">
      <path fill="none" d="M7 7 L17 7 L17 17" clip-path="url(#clipPath13)"/>
    </g>
    <g stroke-linecap="round" transform="matrix(0.4687,0,0,0.4687,134.4586,39.9553)" fill="rgb(110,110,110)" image-rendering="optimizeQuality" stroke-linejoin="round" stroke="rgb(110,110,110)" stroke-width="2" stroke-miterlimit="4">
      <path fill="none" d="M7 17 L17 7" clip-path="url(#clipPath13)"/>
    </g>
    <g stroke-miterlimit="1.45" font-size="11px" font-weight="bold" font-family="'Inter'" transform="matrix(0.703,0,0,0.703,6.8628,7.0301)" stroke-linecap="butt">
      <text x="47.5" xml:space="preserve" y="79.8036" clip-path="url(#clipPath2)" stroke="none">nombre</text>
    </g>
    <g stroke-miterlimit="1.45" font-size="11px" font-family="'Inter'" transform="matrix(0.703,0,0,0.703,6.8628,7.0301)" stroke-linecap="butt">
      <text x="122.5" xml:space="preserve" y="79.8036" clip-path="url(#clipPath2)" stroke="none">VARCHAR</text>
      <text x="47.5" xml:space="preserve" y="99.1161" clip-path="url(#clipPath2)" font-weight="bold" stroke="none">cargo</text>
      <text x="122.5" xml:space="preserve" y="99.1161" clip-path="url(#clipPath2)" stroke="none">VARCHAR</text>
      <text x="47.5" xml:space="preserve" y="118.4286" clip-path="url(#clipPath2)" font-weight="bold" stroke="none">telefono</text>
      <text x="122.5" xml:space="preserve" y="118.4286" clip-path="url(#clipPath2)" stroke="none">VARCHAR</text>
    </g>
    <g fill="rgb(255,255,204)" transform="matrix(0.703,0,0,0.703,6.8628,7.0301)" stroke="rgb(255,255,204)">
      <rect x="573" width="150" height="105.7724" y="0" clip-path="url(#clipPath2)" stroke="none"/>
    </g>
    <g fill="gray" stroke-miterlimit="1.45" transform="matrix(0.703,0,0,0.703,6.8628,7.0301)" stroke-linecap="butt" stroke="gray">
      <rect fill="none" x="573" width="150" height="105.7724" y="0" clip-path="url(#clipPath2)"/>
      <text x="624.5" y="17.6247" clip-path="url(#clipPath2)" fill="black" font-family="'Inter'" stroke="none" xml:space="preserve">usuarios</text>
      <line stroke-linecap="square" clip-path="url(#clipPath2)" fill="none" x1="574" x2="722" y1="24" y2="24" stroke-miterlimit="10"/>
    </g>
    <g stroke-linecap="round" transform="matrix(0.4687,0,0,0.4687,412.4981,26.3785)" fill="rgb(110,110,110)" image-rendering="optimizeQuality" stroke-linejoin="round" stroke="rgb(110,110,110)" stroke-width="2" stroke-miterlimit="4">
      <path fill="none" d="M12.4 2.7 C13.3 1.8 14.9 1.8 15.8 2.7 L21.3 8.2 C22.2 9.1 22.2 10.7 21.3 11.6 L17.6 15.3 C16.7 16.2 15.1 16.2 14.2 15.3 L8.7 9.8 C7.8 8.9 7.8 7.3 8.7 6.4 Z" clip-path="url(#clipPath4)"/>
    </g>
    <g stroke-linecap="round" transform="matrix(0.4687,0,0,0.4687,412.4981,26.3785)" fill="rgb(110,110,110)" image-rendering="optimizeQuality" stroke-linejoin="round" stroke="rgb(110,110,110)" stroke-width="2" stroke-miterlimit="4">
      <path fill="none" d="M14 7 L17 10" clip-path="url(#clipPath4)"/>
    </g>
    <g stroke-linecap="round" transform="matrix(0.4687,0,0,0.4687,412.4981,26.3785)" fill="rgb(110,110,110)" image-rendering="optimizeQuality" stroke-linejoin="round" stroke="rgb(110,110,110)" stroke-width="2" stroke-miterlimit="4">
      <path fill="none" d="M9.4 10.6 L2 18 L2 21 C2 21.6 2.4 22 3 22 L7 22 L7 19 L10 19 L10 16 L12 16 L13.4 14.6" clip-path="url(#clipPath4)"/>
    </g>
    <g stroke-miterlimit="1.45" font-size="11px" font-weight="bold" font-family="'Inter'" transform="matrix(0.703,0,0,0.703,6.8628,7.0301)" stroke-linecap="butt">
      <text x="599" xml:space="preserve" y="41.1786" clip-path="url(#clipPath2)" stroke="none">id</text>
    </g>
    <g stroke-miterlimit="1.45" font-size="11px" font-family="'Inter'" transform="matrix(0.703,0,0,0.703,6.8628,7.0301)" stroke-linecap="butt">
      <text x="658" xml:space="preserve" y="41.1786" clip-path="url(#clipPath2)" stroke="none">INT</text>
      <text x="599" xml:space="preserve" y="60.4911" clip-path="url(#clipPath2)" font-weight="bold" stroke="none">usuario</text>
      <text x="658" xml:space="preserve" y="60.4911" clip-path="url(#clipPath2)" stroke="none">VARCHAR</text>
      <text x="599" xml:space="preserve" y="79.8036" clip-path="url(#clipPath2)" font-weight="bold" stroke="none">password</text>
      <text x="658" xml:space="preserve" y="79.8036" clip-path="url(#clipPath2)" stroke="none">VARCHAR</text>
      <text x="599" xml:space="preserve" y="99.1161" clip-path="url(#clipPath2)" font-weight="bold" stroke="none">rol</text>
      <text x="658" xml:space="preserve" y="99.1161" clip-path="url(#clipPath2)" stroke="none">ENUM</text>
    </g>
    <g fill="gray" stroke-miterlimit="1.45" transform="matrix(0.703,0,0,0.703,6.8628,7.0301)" stroke-linecap="butt" stroke="gray">
      <path fill="none" d="M212.0259 974.0404 L265 974.0404 L265 476.1407 L306.9512 476.1407" clip-path="url(#clipPath2)"/>
    </g>
    <g fill="gray" stroke-miterlimit="1.45" transform="matrix(0.703,0,0,0.703,6.8628,7.0301)" stroke-linecap="butt" stroke="gray">
      <path d="M314.9512 476.1407 L302.9512 471.1407 L305.9512 476.1407 L302.9512 481.1407 Z" stroke="none" clip-path="url(#clipPath2)"/>
      <path fill="none" d="M225.0293 790.3306 L255 790.3306 L255 476.1407 L306.9707 476.1407" clip-path="url(#clipPath2)"/>
      <path d="M314.9707 476.1407 L302.9707 471.1407 L305.9707 476.1407 L302.9707 481.1407 Z" clip-path="url(#clipPath2)" stroke="none"/>
      <path fill="none" d="M209.0352 567.9957 L245 567.9957 L245 476.1407 L306.9658 476.1407" clip-path="url(#clipPath2)"/>
      <path d="M314.9658 476.1407 L302.9658 471.1407 L305.9658 476.1407 L302.9658 481.1407 Z" clip-path="url(#clipPath2)" stroke="none"/>
      <path fill="none" d="M220.5266 384.2858 L275 384.2858 L275 476.1407 L306.9609 476.1407" clip-path="url(#clipPath2)"/>
      <path d="M314.9609 476.1407 L302.9609 471.1407 L305.9609 476.1407 L302.9609 481.1407 Z" clip-path="url(#clipPath2)" stroke="none"/>
      <path fill="none" d="M220.5315 200.576 L285 200.576 L285 476.1407 L306.9707 476.1407" clip-path="url(#clipPath2)"/>
      <path d="M314.9707 476.1407 L302.9707 471.1407 L305.9707 476.1407 L302.9707 481.1407 Z" clip-path="url(#clipPath2)" stroke="none"/>
      <path fill="none" d="M203.5447 55.4911 L295 55.4911 L295 476.1407 L306.9609 476.1407" clip-path="url(#clipPath2)"/>
      <path d="M314.9609 476.1407 L302.9609 471.1407 L305.9609 476.1407 L302.9609 481.1407 Z" clip-path="url(#clipPath2)" stroke="none"/>
    </g>
  </g>
</svg>
